<svg width="32" height="32" viewBox="0 0 32 32" fill="none" xmlns="http://www.w3.org/2000/svg">
<rect width="32" height="32" rx="16" fill="#F5F5F5"/>
<path fill-rule="evenodd" clip-rule="evenodd" d="M16 9.33334C12.3181 9.33334 9.33334 12.3181 9.33334 16C9.33334 19.6819 12.3181 22.6667 16 22.6667C19.6819 22.6667 22.6667 19.6819 22.6667 16C22.6667 12.3181 19.6819 9.33334 16 9.33334ZM16 10.6667C18.9455 10.6667 21.3333 13.0545 21.3333 16C21.3333 18.9455 18.9455 21.3333 16 21.3333C13.0545 21.3333 10.6667 18.9455 10.6667 16C10.6667 13.0545 13.0545 10.6667 16 10.6667ZM16.6622 12.5889C16.6237 12.2574 16.3419 12 16 12C15.6318 12 15.3333 12.2985 15.3333 12.6667V16L15.3391 16.0876C15.3583 16.2321 15.4244 16.3672 15.5286 16.4714L17.5286 18.4714L17.5914 18.5269C17.8529 18.7302 18.2311 18.7117 18.4714 18.4714L18.5269 18.4086C18.7302 18.1471 18.7117 17.7689 18.4714 17.5286L16.6667 15.7233V12.6667L16.6622 12.5889Z" fill="#162447"/>
</svg>
